<svg width="101" height="148" viewBox="0 0 101 148" fill="none" xmlns="http://www.w3.org/2000/svg">
<path fill-rule="evenodd" clip-rule="evenodd" d="M-7.52613 28.25H60.5261C63.3057 28.25 65.5489 28.25 67.3757 28.3749C69.2512 28.5021 70.9116 28.7726 72.4841 29.4248C76.2613 30.9888 79.2625 33.9892 80.8276 37.7659C81.4774 39.3384 81.7479 40.9988 81.8751 42.8766C82 44.7011 82 46.9442 82 49.7239V108.526C82 111.306 82 113.549 81.8751 115.376C81.7479 117.251 81.4774 118.912 80.8276 120.484C80.0529 122.355 78.9173 124.054 77.4857 125.486C76.0541 126.917 74.3546 128.053 72.4841 128.828C70.9116 129.477 69.2512 129.748 67.3734 129.875C65.5489 130 63.3057 130 60.5261 130H-7.52613C-10.3058 130 -12.5489 130 -14.3757 129.875C-16.2512 129.748 -17.9116 129.477 -19.4841 128.828C-23.2616 127.263 -26.2628 124.262 -27.8276 120.484C-28.4774 118.912 -28.7479 117.251 -28.8751 115.373C-29 113.551 -29 111.308 -29 108.528V49.7239C-29 46.9442 -29 44.7011 -28.8751 42.8742C-28.7479 40.9988 -28.4774 39.3384 -27.8276 37.7659C-26.2623 33.9893 -23.2611 30.989 -19.4841 29.4248C-17.9116 28.7726 -16.2512 28.5021 -14.3734 28.3749C-12.5512 28.25 -10.3058 28.25 -7.52613 28.25ZM-13.9549 34.5261C-15.5181 34.6325 -16.4293 34.8337 -17.123 35.1204C-18.2454 35.5853 -19.2652 36.2667 -20.1243 37.1257C-20.9833 37.9848 -21.6647 39.0046 -22.1296 40.127C-22.4163 40.8207 -22.6152 41.7319 -22.7239 43.2951C-22.8326 44.8861 -22.8326 46.9188 -22.8326 49.8326V108.417C-22.8326 111.331 -22.8326 113.366 -22.7239 114.955C-22.6175 116.518 -22.4163 117.429 -22.1296 118.123C-21.6647 119.245 -20.9833 120.265 -20.1243 121.124C-19.2652 121.983 -18.2454 122.665 -17.123 123.13C-16.4293 123.416 -15.5181 123.615 -13.9549 123.724C-12.3639 123.833 -10.3312 123.833 -7.41744 123.833H60.4174C63.3312 123.833 65.3662 123.833 66.9549 123.724C68.5181 123.618 69.4292 123.416 70.123 123.13C71.2454 122.665 72.2652 121.983 73.1243 121.124C73.9833 120.265 74.6647 119.245 75.1296 118.123C75.4163 117.429 75.6152 116.518 75.7239 114.955C75.8326 113.364 75.8326 111.331 75.8326 108.417V49.8326C75.8326 46.9188 75.8326 44.8838 75.7239 43.2951C75.6175 41.7319 75.4163 40.8207 75.1296 40.127C74.6647 39.0046 73.9833 37.9848 73.1243 37.1257C72.2652 36.2667 71.2454 35.5853 70.123 35.1204C69.4292 34.8337 68.5181 34.6348 66.9549 34.5261C65.3639 34.4174 63.3312 34.4174 60.4174 34.4174H-7.41744C-10.3312 34.4174 -12.3662 34.4174 -13.9549 34.5261Z" fill="#F1FBFF"/>
<path fill-rule="evenodd" clip-rule="evenodd" d="M-25.917 59.0826C-25.917 57.3806 -24.5364 56 -22.8321 56H78.9179C79.7357 56 80.5201 56.3249 81.0984 56.9032C81.6767 57.4815 82.0016 58.2659 82.0016 59.0837C82.0016 59.9016 81.6767 60.6859 81.0984 61.2642C80.5201 61.8425 79.7357 62.1674 78.9179 62.1674H-22.8321C-23.2373 62.1677 -23.6386 62.0882 -24.013 61.9332C-24.3874 61.7783 -24.7276 61.5511 -25.0141 61.2646C-25.3006 60.9781 -25.5279 60.6379 -25.6828 60.2634C-25.8377 59.889 -25.9173 59.4878 -25.917 59.0826ZM1.83301 19C3.53732 19 4.91788 20.3806 4.91788 22.0826V34.4174C4.91788 35.2353 4.59299 36.0196 4.01468 36.598C3.43637 37.1763 2.65202 37.5012 1.83416 37.5012C1.01631 37.5012 0.231956 37.1763 -0.346354 36.598C-0.924664 36.0196 -1.24956 35.2353 -1.24956 34.4174V22.0826C-1.24956 20.3806 0.131008 19 1.83301 19ZM51.1679 19C52.8699 19 54.2504 20.3806 54.2504 22.0826V34.4174C54.2504 35.2353 53.9256 36.0196 53.3472 36.598C52.7689 37.1763 51.9846 37.5012 51.1667 37.5012C50.3489 37.5012 49.5645 37.1763 48.9862 36.598C48.4079 36.0196 48.083 35.2353 48.083 34.4174V22.0826C48.083 20.3806 49.4636 19 51.1679 19Z" fill="#F1FBFF"/>
<path d="M1.83248 86.8349C5.23866 86.8349 7.99991 84.0736 7.99991 80.6674C7.99991 77.2613 5.23866 74.5 1.83248 74.5C-1.57371 74.5 -4.33496 77.2613 -4.33496 80.6674C-4.33496 84.0736 -1.57371 86.8349 1.83248 86.8349Z" fill="#F1FBFF"/>
<path d="M26.5004 86.8349C29.9066 86.8349 32.6679 84.0736 32.6679 80.6674C32.6679 77.2613 29.9066 74.5 26.5004 74.5C23.0943 74.5 20.333 77.2613 20.333 80.6674C20.333 84.0736 23.0943 86.8349 26.5004 86.8349Z" fill="#F1FBFF"/>
<path d="M51.1674 86.8349C54.5736 86.8349 57.3349 84.0736 57.3349 80.6674C57.3349 77.2613 54.5736 74.5 51.1674 74.5C47.7613 74.5 45 77.2613 45 80.6674C45 84.0736 47.7613 86.8349 51.1674 86.8349Z" fill="#F1FBFF"/>
<path d="M1.83248 111.502C5.23866 111.502 7.99991 108.741 7.99991 105.334C7.99991 101.928 5.23866 99.167 1.83248 99.167C-1.57371 99.167 -4.33496 101.928 -4.33496 105.334C-4.33496 108.741 -1.57371 111.502 1.83248 111.502Z" fill="#F1FBFF"/>
<path d="M26.5004 111.502C29.9066 111.502 32.6679 108.741 32.6679 105.334C32.6679 101.928 29.9066 99.167 26.5004 99.167C23.0943 99.167 20.333 101.928 20.333 105.334C20.333 108.741 23.0943 111.502 26.5004 111.502Z" fill="#F1FBFF"/>
<path d="M51.1674 111.502C54.5736 111.502 57.3349 108.741 57.3349 105.334C57.3349 101.928 54.5736 99.167 51.1674 99.167C47.7613 99.167 45 101.928 45 105.334C45 108.741 47.7613 111.502 51.1674 111.502Z" fill="#DB5B32"/>
</svg>
