<svg width="114" height="143" viewBox="0 0 114 143" fill="none" xmlns="http://www.w3.org/2000/svg">
<path d="M75.5143 48.5112H47.3699C49.1043 45.6407 50.1166 42.5991 50.1795 39.6743C50.2667 35.6726 48.6661 32.0935 45.5604 29.3177C38.7606 23.2426 37.9451 20.3801 41.5945 15.39C42.2259 14.5254 42.4856 13.4475 42.3168 12.393C42.1479 11.3385 41.5642 10.3936 40.6939 9.76582C39.8223 9.13987 38.7363 8.88244 37.6737 9.04998C36.6112 9.21753 35.659 9.79637 35.026 10.6596C26.147 22.8057 35.594 31.2441 40.134 35.3002C41.4931 36.512 42.1078 37.8465 42.0713 39.5012C42.0084 42.3173 39.9899 45.7917 36.8984 48.5112H2.48571C-16.5301 48.5112 -32 64.1599 -32 83.3534C-32 97.9634 -27.1537 139.712 -5.62857 139.712C6.22031 139.712 22.9236 127.018 29.6726 112.928H48.3253C55.1129 127.018 71.8243 140 83.6265 140C105.152 140 109.998 97.9111 110 83.1863C110 64.0834 94.5301 48.5112 75.5143 48.5112ZM83.6265 131.978C75.2161 131.978 59.7016 120.094 54.7559 107.509C54.1473 105.963 52.6482 104.874 50.9767 104.874H27.0213C25.3477 104.874 23.8486 105.945 23.24 107.493C18.3532 119.927 2.8326 131.689 -5.6306 131.689C-17.3862 131.689 -23.8877 103.115 -23.8877 83.3856C-23.8877 68.8843 -11.8117 56.563 2.48368 56.563H75.5123C90.0531 56.563 101.884 68.5421 101.884 83.1984C101.884 100.687 95.7817 131.978 83.6265 131.978Z" fill="#F1FBFF"/>
<path d="M36.9036 92.9135H35.1741C34.7155 92.9135 34.2756 93.0932 33.9512 93.4131C33.6269 93.733 33.4447 94.1668 33.4447 94.6192C33.4447 95.0715 33.6269 95.5054 33.9512 95.8252C34.2756 96.1451 34.7155 96.3248 35.1741 96.3248H36.9036C37.3623 96.3248 37.8022 96.1451 38.1265 95.8252C38.4509 95.5054 38.6331 95.0715 38.6331 94.6192C38.6331 94.1668 38.4509 93.733 38.1265 93.4131C37.8022 93.0932 37.3623 92.9135 36.9036 92.9135ZM29.9857 92.9135H23.6109C22.8967 92.9135 22.255 93.3962 21.9973 94.0529C18.7736 102.272 6.5809 114.551 1.61561 114.551C0.659216 114.551 -0.113854 115.298 -0.113854 116.24C-0.113854 117.183 0.659216 117.918 1.61561 117.918C8.74965 117.918 20.8749 104.853 24.7576 96.3248H29.9857C30.4444 96.3248 30.8843 96.1451 31.2087 95.8252C31.533 95.5054 31.7152 95.0715 31.7152 94.6192C31.7152 94.1668 31.533 93.733 31.2087 93.4131C30.8843 93.0932 30.4444 92.9135 29.9857 92.9135ZM6.43217 94.7369C6.43217 95.1892 6.61438 95.6231 6.93872 95.9429C7.26305 96.2628 7.70295 96.4425 8.16163 96.4425C8.62032 96.4425 9.06021 96.2628 9.38455 95.9429C9.70889 95.6231 9.8911 95.1892 9.8911 94.7369V84.3854H19.609C20.0676 84.3854 20.5075 84.2057 20.8319 83.8858C21.1562 83.5659 21.3384 83.1321 21.3384 82.6797C21.3384 82.2274 21.1562 81.7935 20.8319 81.4737C20.5075 81.1538 20.0676 80.9741 19.609 80.9741H9.8911V70.858C9.8911 70.4056 9.70889 69.9718 9.38455 69.6519C9.06021 69.332 8.62032 69.1523 8.16163 69.1523C7.70295 69.1523 7.26305 69.332 6.93872 69.6519C6.61438 69.9718 6.43217 70.4056 6.43217 70.858V80.9741H-4.60354C-5.06223 80.9741 -5.50212 81.1538 -5.82646 81.4737C-6.1508 81.7935 -6.33301 82.2274 -6.33301 82.6797C-6.33301 83.1321 -6.1508 83.5659 -5.82646 83.8858C-5.50212 84.2057 -5.06223 84.3854 -4.60354 84.3854H6.43217V94.7369Z" fill="#F1FBFF"/>
<path fill-rule="evenodd" clip-rule="evenodd" d="M75.4061 80.638C76.9903 80.638 78.4776 80.0291 79.6001 78.9255C80.719 77.8237 81.3364 76.3534 81.3364 74.7911C81.3364 73.2287 80.7208 71.7618 79.5983 70.6566C77.3621 68.4478 73.4535 68.4478 71.2173 70.6566C70.0967 71.7618 69.481 73.2287 69.481 74.7911C69.481 76.3534 70.0967 77.822 71.2139 78.9221C71.7627 79.4675 72.4159 79.9001 73.1355 80.1946C73.8552 80.4892 74.627 80.6399 75.4061 80.638ZM74.4636 72.5414C74.1643 72.6636 73.8926 72.8433 73.6645 73.0701C73.1958 73.5306 72.9416 74.1412 72.9416 74.7928C72.9402 75.1131 73.0034 75.4305 73.1275 75.7265C73.2516 76.0226 73.4342 76.2913 73.6645 76.5172C74.5984 77.4399 76.2207 77.4399 77.1563 76.5172C77.625 76.0549 77.8792 75.4443 77.8792 74.7928C77.8792 74.1429 77.6233 73.534 77.1546 73.0701C76.6876 72.6095 76.0685 72.3588 75.4078 72.3588C75.0839 72.3572 74.7629 72.4193 74.4636 72.5414Z" fill="#DB5B32"/>
<path fill-rule="evenodd" clip-rule="evenodd" d="M89.0844 80.012C86.8448 77.8032 82.9362 77.8032 80.7 80.012C79.5793 81.1138 78.9636 82.5807 78.9636 84.143C78.9636 85.7054 79.581 87.174 80.6983 88.2741C81.2472 88.8198 81.9007 89.2525 82.6207 89.5471C83.3406 89.8417 84.1128 89.9922 84.8922 89.99C86.4747 89.99 87.962 89.3845 89.0844 88.2775C90.1944 87.1807 90.8178 85.6944 90.8178 84.1448C90.8178 82.5951 90.1944 81.1088 89.0844 80.012ZM83.1455 85.864C84.0811 86.7834 85.7033 86.7834 86.639 85.864C86.9818 85.5225 87.2147 85.0887 87.3083 84.6171C87.402 84.1455 87.3523 83.6571 87.1656 83.2132C86.9788 82.7693 86.6632 82.3898 86.2584 82.1222C85.8537 81.8546 85.3778 81.7109 84.8905 81.7091C84.2316 81.7091 83.6124 81.9615 83.1455 82.4221C82.6785 82.8826 82.4225 83.4915 82.4225 84.1413C82.4225 84.7912 82.6785 85.4035 83.1455 85.864Z" fill="#DB5B32"/>
<path fill-rule="evenodd" clip-rule="evenodd" d="M71.2191 89.3623C70.0984 90.4641 69.4827 91.931 69.4827 93.4933C69.4827 95.0557 70.0984 96.5242 71.2191 97.6278C72.3363 98.733 73.8237 99.3402 75.4078 99.3402C76.992 99.3402 78.4811 98.7347 79.6018 97.6278C80.1551 97.0869 80.5936 96.4427 80.8917 95.7328C81.1898 95.023 81.3416 94.2617 81.3382 93.4933C81.3382 91.931 80.719 90.4624 79.6001 89.3623C77.3621 87.1535 73.4553 87.1535 71.2191 89.3623ZM73.6628 95.2177C74.5967 96.1405 76.2224 96.1371 77.1546 95.2177C77.6233 94.7555 77.8775 94.1449 77.8775 93.495C77.8775 92.8435 77.6233 92.2363 77.1546 91.7741C76.6859 91.3135 76.0668 91.0611 75.4061 91.0611C74.7472 91.0611 74.1298 91.3135 73.6628 91.7741C73.1941 92.2363 72.9399 92.8435 72.9399 93.495C72.9383 93.8151 73.0015 94.1323 73.1256 94.4281C73.2497 94.7239 73.4323 94.9923 73.6628 95.2177Z" fill="#DB5B32"/>
<path fill-rule="evenodd" clip-rule="evenodd" d="M71.8572 84.143C71.859 83.3752 71.7061 82.6146 71.4075 81.9054C71.1088 81.1963 70.6703 80.5527 70.1174 80.012C67.8812 77.8032 63.9726 77.8032 61.7364 80.012C61.1838 80.5527 60.7458 81.1964 60.4477 81.9056C60.1496 82.6148 59.9974 83.3753 60 84.143C59.9971 84.9111 60.149 85.6722 60.4468 86.3819C60.7445 87.0917 61.1823 87.736 61.7347 88.2775C62.8537 89.3845 64.3427 89.99 65.9269 89.99C67.5111 89.99 68.9984 89.3845 70.1191 88.2775C70.6722 87.7363 71.1107 87.0921 71.4091 86.3824C71.7074 85.6726 71.8598 84.9114 71.8572 84.143ZM64.1802 85.864C65.1175 86.7868 66.7398 86.7834 67.6754 85.864C68.1406 85.4052 68.3983 84.7912 68.3983 84.1413C68.3985 83.8214 68.3347 83.5046 68.2106 83.2091C68.0864 82.9136 67.9043 82.6451 67.6747 82.4192C67.4451 82.1932 67.1725 82.0142 66.8726 81.8923C66.5726 81.7705 66.2513 81.7082 65.9269 81.7091C65.268 81.7091 64.6488 81.9615 64.1819 82.4221C63.7149 82.8826 63.459 83.4915 63.459 84.1413C63.459 84.7912 63.7115 85.4035 64.1802 85.864Z" fill="#DB5B32"/>
</svg>
