<svg width="113" height="130" viewBox="0 0 113 130" fill="none" xmlns="http://www.w3.org/2000/svg">
<path d="M121.585 67.8233H102.268V27.3023C102.268 25.9209 101.302 25 99.8537 25H27.4146C25.9659 25 25 25.9209 25 27.3023V112.488C25 118.935 30.3122 124 37.0732 124H110.72C117.963 124 124 118.244 124 111.337V70.1256C124 68.9744 123.034 67.8233 121.585 67.8233ZM29.8293 112.488V29.6047H97.439V111.337C97.439 114.33 98.6463 117.323 100.578 119.395H37.0732C32.9683 119.395 29.8293 116.402 29.8293 112.488ZM119.171 111.337C119.171 115.712 115.307 119.395 110.72 119.395C106.132 119.395 102.268 115.712 102.268 111.337V72.4279H119.171V111.337Z" fill="#F1FBFF"/>
<path d="M86.573 39.0449H40.6949C39.2461 39.0449 38.2803 39.9659 38.2803 41.3472V55.3914C38.2803 56.7728 39.2461 57.6938 40.6949 57.6938H86.573C88.0217 57.6938 88.9876 56.7728 88.9876 55.3914V41.3472C88.9876 40.1961 87.7803 39.0449 86.573 39.0449ZM84.1583 53.3193H43.1095V43.8798H84.1583V53.3193ZM85.8486 67.1333H41.4193C39.9705 67.1333 39.0047 68.0542 39.0047 69.4356C39.0047 70.817 39.9705 71.7379 41.4193 71.7379H85.6071C87.0559 71.7379 88.0217 70.817 88.0217 69.4356C88.0217 68.0542 87.0559 67.1333 85.8486 67.1333ZM85.8486 80.9472H41.4193C39.9705 80.9472 39.0047 81.8682 39.0047 83.2496C39.0047 84.631 39.9705 85.5519 41.4193 85.5519H85.6071C87.0559 85.5519 88.0217 84.631 88.0217 83.2496C88.0217 81.8682 87.0559 80.9472 85.8486 80.9472ZM85.8486 94.7612H41.4193C39.9705 94.7612 39.0047 95.6821 39.0047 97.0635C39.0047 98.4449 39.9705 99.3659 41.4193 99.3659H85.6071C87.0559 99.3659 88.0217 98.4449 88.0217 97.0635C88.0217 95.6821 87.0559 94.7612 85.8486 94.7612Z" fill="#DB5B32"/>
</svg>
