<svg width="125" height="124" viewBox="0 0 125 124" fill="none" xmlns="http://www.w3.org/2000/svg">
<path d="M70.924 71.124C71.3232 71.4437 71.5798 71.9085 71.6378 72.4168C71.6959 72.9251 71.5507 73.4358 71.234 73.8374C66.3713 80.0397 58.6221 80.0397 53.7983 73.8374C53.496 73.4348 53.3621 72.9303 53.4251 72.4307C53.4881 71.9311 53.743 71.4756 54.1358 71.1607C54.5286 70.8459 55.0284 70.6963 55.5295 70.7437C56.0306 70.7911 56.4936 71.0317 56.8205 71.4147C57.4232 72.3884 58.2646 73.1919 59.2647 73.7492C60.2649 74.3064 61.3907 74.5989 62.5355 74.5989C63.6803 74.5989 64.8061 74.3064 65.8062 73.7492C66.8064 73.1919 67.6477 72.3884 68.2505 71.4147C68.5719 71.0294 69.03 70.7838 69.5286 70.7296C70.0272 70.6754 70.5274 70.8168 70.924 71.124ZM62.4967 65.8908C39.966 64.9992 39.9466 32.7669 62.4967 31.856C67.0079 31.856 71.3344 33.6489 74.5243 36.8402C77.7141 40.0316 79.5062 44.3601 79.5062 48.8734C79.5062 53.3867 77.7141 57.7151 74.5243 60.9065C71.3344 64.0979 67.0079 65.8908 62.4967 65.8908ZM75.6316 48.8734C75.0117 31.4295 49.9818 31.4295 49.3619 48.8734C49.3619 52.3586 50.7457 55.7011 53.209 58.1655C55.6722 60.6299 59.0132 62.0144 62.4967 62.0144C65.9803 62.0144 69.3212 60.6299 71.7845 58.1655C74.2478 55.7011 75.6316 52.3586 75.6316 48.8734ZM78.2663 66.8211C77.8759 66.4767 77.3646 66.3016 76.8451 66.3343C76.3255 66.367 75.8403 66.6049 75.496 66.9956C75.1518 67.3862 74.9767 67.8977 75.0094 68.4175C75.0421 68.9373 75.2799 69.4228 75.6704 69.7672C82.4897 75.9501 87.4104 86.397 89.3283 98.7046H35.6652C37.6025 86.397 42.5038 75.9501 49.3231 69.7672C49.529 69.6018 49.6989 69.396 49.8224 69.1625C49.9459 68.929 50.0204 68.6727 50.0413 68.4093C50.0622 68.146 50.0291 67.8811 49.9439 67.631C49.8588 67.381 49.7234 67.1509 49.5462 66.9551C49.369 66.7593 49.1536 66.6017 48.9133 66.4922C48.673 66.3827 48.4128 66.3234 48.1488 66.3182C47.8848 66.3129 47.6225 66.3616 47.378 66.4615C47.1336 66.5613 46.9121 66.7101 46.7271 66.8987C38.8423 74.0506 33.2823 86.2807 31.5193 100.391C31.4833 100.666 31.5066 100.945 31.5877 101.21C31.6688 101.475 31.8058 101.72 31.9894 101.927C32.173 102.135 32.399 102.301 32.6521 102.413C32.9052 102.526 33.1796 102.583 33.4566 102.581H91.5562C91.8333 102.583 92.1076 102.526 92.3607 102.413C92.6138 102.301 92.8398 102.135 93.0234 101.927C93.2071 101.72 93.344 101.475 93.4251 101.21C93.5062 100.945 93.5295 100.666 93.4935 100.391C91.7112 86.2419 86.1511 74.0312 78.2663 66.8793V66.8211ZM95.4308 50.2301C95.9926 55.2888 93.0286 59.8242 87.6816 59.9211H85.7443C85.2305 59.9211 84.7378 59.7169 84.3744 59.3535C84.0111 58.99 83.807 58.497 83.807 57.9829V46.6638C82.6446 18.3854 42.3488 18.3854 41.1865 46.6638V57.9829C41.1865 58.497 40.9824 58.99 40.619 59.3535C40.2557 59.7169 39.763 59.9211 39.2492 59.9211H37.3119C31.9456 59.8242 29.0202 55.2888 29.5627 50.2301C29.5615 49.1803 29.7734 48.1411 30.1857 47.1757C30.5979 46.2102 31.2019 45.3386 31.9609 44.6136C32.7199 43.8887 33.6182 43.3255 34.6013 42.9583C35.5844 42.5911 36.6318 42.4274 37.68 42.4773C42.9494 14.6253 82.0247 14.6059 87.3135 42.4773H87.6816C89.7368 42.4773 91.7079 43.2941 93.1611 44.7481C94.6144 46.202 95.4308 48.1739 95.4308 50.2301ZM37.3119 56.0447V46.3537C36.2843 46.3537 35.2987 46.7621 34.5721 47.4891C33.8455 48.2161 33.4373 49.202 33.4373 50.2301V52.1683C33.4373 53.1964 33.8455 54.1824 34.5721 54.9094C35.2987 55.6363 36.2843 56.0447 37.3119 56.0447ZM91.5562 50.2301C91.5562 49.202 91.148 48.2161 90.4214 47.4891C89.6947 46.7621 88.7092 46.3537 87.6816 46.3537V56.0447C88.7092 56.0447 89.6947 55.6363 90.4214 54.9094C91.148 54.1824 91.5562 53.1964 91.5562 52.1683V50.2301Z" fill="url(#paint0_linear_363_8513)"/>
<defs>
<linearGradient id="paint0_linear_363_8513" x1="62.4985" y1="21.5811" x2="62.4985" y2="102.581" gradientUnits="userSpaceOnUse">
<stop stop-color="#DB5B32"/>
<stop offset="1" stop-color="#FFC7B6"/>
</linearGradient>
</defs>
</svg>
