<svg width="124" height="124" viewBox="0 0 124 124" fill="none" xmlns="http://www.w3.org/2000/svg">
<path d="M101.276 33.6196C101.21 33.1778 101.043 32.7574 100.787 32.3913C100.531 32.0251 100.193 31.7232 99.801 31.5093C88.0014 25.2647 74.8521 22 61.5 22C48.1479 22 34.9986 25.2647 23.199 31.5093C22.8067 31.7232 22.4693 32.0251 22.2133 32.3913C21.9573 32.7574 21.7897 33.1778 21.7237 33.6196C21.2298 36.6879 20.9879 39.7914 21.0005 42.8991C21.1224 55.5828 24.8867 67.9647 31.8456 78.5727C38.8046 89.1808 48.6655 97.5687 60.2561 102.739C60.6482 102.911 61.0718 103 61.5 103C61.9282 103 62.3518 102.911 62.7439 102.739C74.3345 97.5687 84.1954 89.1808 91.1544 78.5727C98.1133 67.9647 101.878 55.5828 102 42.8991C102.012 39.7914 101.77 36.6879 101.276 33.6196ZM61.5 96.8998C51.2153 92.0749 42.5018 84.4478 36.361 74.8952C30.2202 65.3426 26.9014 54.2523 26.7861 42.8991C26.7838 40.5892 26.9288 38.2815 27.22 35.9901C37.8513 30.6307 49.5926 27.8388 61.5 27.8388C73.4074 27.8388 85.1487 30.6307 95.78 35.9901C96.0712 38.2815 96.2162 40.5892 96.2139 42.8991C96.0986 54.2523 92.7798 65.3426 86.639 74.8952C80.4982 84.4478 71.7847 92.0749 61.5 96.8998ZM61.095 87.7358C60.8354 88.162 60.4698 88.5138 60.0339 88.7569C59.5979 89.0001 59.1064 89.1264 58.6072 89.1235C58.088 89.1233 57.5784 88.9835 57.1318 88.7187C47.3563 82.9788 39.7963 74.1207 35.6671 63.5685C35.3909 62.8517 35.411 62.0545 35.7229 61.3525C36.0348 60.6504 36.6131 60.1009 37.3305 59.8249C38.0478 59.5489 38.8455 59.569 39.5481 59.8807C40.2506 60.1924 40.8005 60.7703 41.0767 61.4872C44.7291 70.8303 51.4243 78.6716 60.0825 83.7465C60.4131 83.9402 60.7018 84.1975 60.932 84.5036C61.1622 84.8097 61.3292 85.1585 61.4234 85.5296C61.5176 85.9008 61.5371 86.2869 61.4807 86.6657C61.4243 87.0444 61.2932 87.4082 61.095 87.7358Z" fill="url(#paint0_linear_363_8508)"/>
<defs>
<linearGradient id="paint0_linear_363_8508" x1="61.5" y1="22" x2="61.5" y2="103" gradientUnits="userSpaceOnUse">
<stop stop-color="#DB5B32"/>
<stop offset="1" stop-color="#FFC7B6"/>
</linearGradient>
</defs>
</svg>
