<svg width="125" height="124" viewBox="0 0 125 124" fill="none" xmlns="http://www.w3.org/2000/svg">
<path fill-rule="evenodd" clip-rule="evenodd" d="M63.4326 80.1327C62.6417 80.9235 61.3596 80.9235 60.5688 80.1327L44.3685 63.9324C43.5777 63.1416 43.5777 61.8594 44.3685 61.0686C45.1593 60.2778 46.4415 60.2778 47.2323 61.0686L59.9757 73.8119V24.025C59.9757 22.9066 60.8822 22 62.0007 22C63.1191 22 64.0256 22.9066 64.0256 24.025V73.8119L76.769 61.0686C77.5598 60.2778 78.842 60.2778 79.6328 61.0686C80.4236 61.8594 80.4236 63.1416 79.6328 63.9324L63.4326 80.1327ZM25.5501 62.4996C25.5501 61.3813 24.6434 60.4746 23.525 60.4746C22.4066 60.4746 21.5 61.3813 21.5 62.4996C21.5 84.8674 39.6327 103 62.0005 103C84.3683 103 102.501 84.8674 102.501 62.4996C102.501 61.3813 101.594 60.4746 100.476 60.4746C99.3577 60.4746 98.4509 61.3813 98.4509 62.4996C98.4509 82.6307 82.1316 98.95 62.0005 98.95C41.8695 98.95 25.5501 82.6307 25.5501 62.4996Z" fill="url(#paint0_linear_363_8501)"/>
<defs>
<linearGradient id="paint0_linear_363_8501" x1="62.0005" y1="22" x2="62.0005" y2="103" gradientUnits="userSpaceOnUse">
<stop stop-color="#DB5B32"/>
<stop offset="1" stop-color="#FFC7B6"/>
</linearGradient>
</defs>
</svg>
