<svg width="81.000000" height="81.000000" viewBox="0 0 81 81" fill="none" xmlns="http://www.w3.org/2000/svg" xmlns:xlink="http://www.w3.org/1999/xlink">
	<desc>
			Created with Pixso.
	</desc>
	<defs>
		<linearGradient id="paint_linear_363_5793_0" x1="40.500000" y1="0.000000" x2="40.500000" y2="81.000000" gradientUnits="userSpaceOnUse">
			<stop stop-color="#DB5B32"/>
			<stop offset="1.000000" stop-color="#FFC7B6"/>
		</linearGradient>
	</defs>
	<path id="Layer 15" d="M80.27 11.61C80.21 11.17 80.04 10.75 79.78 10.39C79.53 10.02 79.19 9.72 78.8 9.5C67 3.26 53.85 0 40.5 0C27.14 0 13.99 3.26 2.19 9.5C1.8 9.72 1.46 10.02 1.21 10.39C0.95 10.75 0.79 11.17 0.72 11.61C0.22 14.68 -0.02 17.79 0 20.89C0.12 33.58 3.88 45.96 10.84 56.57C17.8 67.18 27.66 75.56 39.25 80.73C39.64 80.91 40.07 81 40.5 81C40.92 81 41.35 80.91 41.74 80.73C53.33 75.56 63.19 67.18 70.15 56.57C77.11 45.96 80.87 33.58 81 20.89C81.01 17.79 80.77 14.68 80.27 11.61ZM40.5 74.89C30.21 70.07 21.5 62.44 15.36 52.89C9.21 43.34 5.9 32.25 5.78 20.89C5.78 18.58 5.92 16.28 6.21 13.99C16.85 8.63 28.59 5.83 40.5 5.83C52.4 5.83 64.14 8.63 74.78 13.99C75.07 16.28 75.21 18.58 75.21 20.89C75.09 32.25 71.78 43.34 65.63 52.89C59.49 62.44 50.78 70.07 40.5 74.89ZM40.09 65.73C39.83 66.16 39.46 66.51 39.03 66.75C38.59 67 38.1 67.12 37.6 67.12C37.08 67.12 36.57 66.98 36.13 66.71C26.35 60.97 18.79 52.12 14.66 41.56C14.39 40.85 14.41 40.05 14.72 39.35C15.03 38.65 15.61 38.1 16.33 37.82C17.04 37.54 17.84 37.56 18.54 37.88C19.25 38.19 19.8 38.77 20.07 39.48C23.72 48.83 30.42 56.67 39.08 61.74C39.41 61.94 39.7 62.19 39.93 62.5C40.16 62.8 40.32 63.15 40.42 63.52C40.51 63.9 40.53 64.28 40.48 64.66C40.42 65.04 40.29 65.4 40.09 65.73Z" fill="url(#paint_linear_363_5793_0)" fill-opacity="1.000000" fill-rule="nonzero"/>
</svg>
